# xmcd
#
# Track frame offsets:
#	150
#	16207
#	29431
#
# Disc length: 601 seconds
#
# Revision: 2
# Processed by: cddbd v1.4PL0 Copyright (c) Steve Scherf et al.
# Submitted via: EasyCDDAExtractor 5.1.0
#
DISCID=19025703
DTITLE=Indochine
DYEAR=2000
DGENRE=Blues
TTITLE0=J'ai Demander A La Lune
TTITLE1=Punkert
TTITLE2=Glory Hole
EXTD=
EXTT0=
EXTT1=
EXTT2=
PLAYORDER=
